<?xml version="1.0" encoding="utf-8"?>
<!-- Generator: Adobe Illustrator 16.0.0, SVG Export Plug-In . SVG Version: 6.00 Build 0)  -->
<!DOCTYPE svg PUBLIC "-//W3C//DTD SVG 1.1//EN" "http://www.w3.org/Graphics/SVG/1.1/DTD/svg11.dtd">
<svg version="1.1" xmlns="http://www.w3.org/2000/svg" xmlns:xlink="http://www.w3.org/1999/xlink" x="0px" y="0px"
	 width="18.426px" height="18.42px" viewBox="0 0 18.426 18.42" enable-background="new 0 0 18.426 18.42" xml:space="preserve">
<g id="Layer_1" display="none">
	<g display="inline">
		<path fill="#FFFFFF" d="M13.346,0H5.078C2.275,0,0,2.273,0,5.078v8.266c0,2.803,2.275,5.076,5.078,5.076h8.268
			c2.805,0,5.08-2.273,5.08-5.076V5.078C18.426,2.273,16.15,0,13.346,0z M16.936,13.322c0,1.994-1.616,3.609-3.611,3.609H5.1
			c-1.994,0-3.609-1.615-3.609-3.609V5.099c0-1.993,1.615-3.61,3.609-3.61h8.225c1.995,0,3.611,1.617,3.611,3.61V13.322z"/>
		<path fill="#FFFFFF" d="M9.211,4.355c-2.68,0-4.854,2.174-4.854,4.855c0,2.681,2.174,4.854,4.854,4.854
			c2.682,0,4.856-2.173,4.856-4.854C14.067,6.529,11.893,4.355,9.211,4.355z M9.211,12.377c-1.748,0-3.166-1.418-3.166-3.166
			c0-1.75,1.418-3.167,3.166-3.167c1.75,0,3.167,1.417,3.167,3.167C12.378,10.959,10.961,12.377,9.211,12.377z"/>
		<circle fill="#FFFFFF" cx="14.233" cy="4.195" r="1.089"/>
	</g>
</g>
<g id="Layer_2">
	<path fill="#FFFFFF" d="M12.692,9.685h-2.689v8.653H6.016V9.685H4.12V6.298h1.896V4.105c0-1.566,0.745-4.023,4.023-4.023
		l2.952,0.014v3.288h-2.143c-0.352,0-0.846,0.175-0.846,0.924V6.3h3.037L12.692,9.685z M13.156,9.787"/>
</g>
</svg>
