<?xml version="1.0" encoding="utf-8"?>
<!-- Generator: Adobe Illustrator 16.0.0, SVG Export Plug-In . SVG Version: 6.00 Build 0)  -->
<!DOCTYPE svg PUBLIC "-//W3C//DTD SVG 1.1//EN" "http://www.w3.org/Graphics/SVG/1.1/DTD/svg11.dtd">
<svg version="1.1" xmlns="http://www.w3.org/2000/svg" xmlns:xlink="http://www.w3.org/1999/xlink" x="0px" y="0px"
	 width="18.426px" height="18.42px" viewBox="0 0 18.426 18.42" enable-background="new 0 0 18.426 18.42" xml:space="preserve">
<g id="Layer_1" display="none">
	<g display="inline">
		<path fill="#FFFFFF" d="M13.346,0H5.078C2.275,0,0,2.273,0,5.078v8.266c0,2.803,2.275,5.076,5.078,5.076h8.268
			c2.805,0,5.08-2.273,5.08-5.076V5.078C18.426,2.273,16.15,0,13.346,0z M16.936,13.322c0,1.994-1.616,3.609-3.611,3.609H5.1
			c-1.994,0-3.609-1.615-3.609-3.609V5.099c0-1.993,1.615-3.61,3.609-3.61h8.225c1.995,0,3.611,1.617,3.611,3.61V13.322z"/>
		<path fill="#FFFFFF" d="M9.211,4.355c-2.68,0-4.854,2.174-4.854,4.855c0,2.681,2.174,4.854,4.854,4.854
			c2.682,0,4.856-2.173,4.856-4.854C14.067,6.529,11.893,4.355,9.211,4.355z M9.211,12.377c-1.748,0-3.166-1.418-3.166-3.166
			c0-1.75,1.418-3.167,3.166-3.167c1.75,0,3.167,1.417,3.167,3.167C12.378,10.959,10.961,12.377,9.211,12.377z"/>
		<circle fill="#FFFFFF" cx="14.233" cy="4.195" r="1.089"/>
	</g>
</g>
<g id="Layer_2" display="none">
	<path display="inline" fill="#FFFFFF" d="M12.692,9.685h-2.689v8.653H6.016V9.685H4.12V6.298h1.896V4.105
		c0-1.566,0.745-4.023,4.023-4.023l2.952,0.014v3.288h-2.143c-0.352,0-0.846,0.175-0.846,0.924V6.3h3.037L12.692,9.685z
		 M13.156,9.787"/>
</g>
<g id="Layer_3">
	<g>
		<g>
			<path fill="#FFFFFF" d="M18.018,3.842c-0.648,0.287-1.346,0.48-2.076,0.568c0.748-0.447,1.318-1.154,1.59-1.998
				c-0.699,0.414-1.473,0.715-2.295,0.877c-0.658-0.703-1.598-1.141-2.637-1.141c-1.996,0-3.613,1.617-3.613,3.611
				c0,0.283,0.031,0.56,0.094,0.824c-3.004-0.15-5.664-1.588-7.447-3.775C1.322,3.342,1.145,3.963,1.145,4.625
				c0,1.254,0.637,2.359,1.607,3.008c-0.594-0.02-1.15-0.182-1.637-0.453c0,0.016,0,0.031,0,0.047c0,1.75,1.246,3.21,2.898,3.541
				c-0.303,0.084-0.623,0.127-0.953,0.127c-0.232,0-0.459-0.021-0.68-0.063c0.461,1.435,1.795,2.479,3.375,2.509
				c-1.236,0.969-2.795,1.546-4.486,1.546c-0.293,0-0.58-0.017-0.861-0.051c1.598,1.026,3.496,1.624,5.537,1.624
				c6.645,0,10.279-5.504,10.279-10.279c0-0.157-0.002-0.313-0.01-0.469C16.92,5.203,17.533,4.566,18.018,3.842L18.018,3.842z
				 M18.018,3.842"/>
		</g>
	</g>
</g>
</svg>
